<?xml version="1.0" standalone="no"?>
<!DOCTYPE svg PUBLIC "-//W3C//DTD SVG 20010904//EN"
 "http://www.w3.org/TR/2001/REC-SVG-20010904/DTD/svg10.dtd">
<svg version="1.0" xmlns="http://www.w3.org/2000/svg"
 width="2203.000000pt" height="1239.000000pt" viewBox="0 0 2203.000000 1239.000000"
 preserveAspectRatio="xMidYMid meet">

<g transform="translate(0.000000,1239.000000) scale(0.100000,-0.100000)"
fill="#000000" stroke="none">
<path d="M10885 8324 c-347 -35 -540 -85 -792 -208 -233 -114 -390 -223 -566
-395 -327 -319 -533 -706 -618 -1165 -26 -141 -36 -438 -20 -592 39 -375 178
-736 401 -1048 l32 -44 -72 -463 c-40 -255 -75 -485 -77 -511 l-5 -47 148 58
c265 103 820 311 832 311 6 0 46 -14 89 -31 477 -189 1030 -195 1523 -16 312
113 640 333 849 568 290 327 474 722 536 1150 20 143 20 448 -1 588 -68 463
-272 879 -591 1207 -317 325 -762 553 -1213 618 -105 16 -380 28 -455 20z
m-247 -1706 l3 -98 -246 0 -245 0 0 -145 0 -145 220 0 220 0 0 -95 0 -95 -220
0 -220 0 -2 -227 -3 -228 -115 0 -115 0 -3 555 c-1 305 0 561 3 568 3 10 81
12 362 10 l358 -3 3 -97z m724 -243 c164 -475 170 -489 178 -474 4 8 67 187
140 399 73 212 136 393 142 403 8 16 23 17 151 15 l142 -3 0 -565 0 -565 -107
-3 -108 -3 0 370 c0 206 -4 372 -9 375 -5 3 -36 -74 -69 -172 -101 -299 -184
-536 -194 -554 -7 -15 -23 -18 -102 -18 l-93 0 -123 353 c-68 193 -129 363
-136 377 -11 21 -13 -36 -14 -353 l0 -378 -107 3 -108 3 -3 555 c-1 305 0 561
3 568 3 10 40 12 152 10 l147 -3 118 -340z"/>
</g>
</svg>
